<?xml version="1.0" encoding="utf-8"?>
<!-- Designed by Vexels.com - 2019 All Rights Reserved - https://vexels.com/terms-and-conditions/  -->
<svg version="1.1" id="Layer_1" xmlns="http://www.w3.org/2000/svg" xmlns:xlink="http://www.w3.org/1999/xlink" x="0px" y="0px"
	 viewBox="0 0 1200 1200" enable-background="new 0 0 1200 1200" xml:space="preserve">
<path fill="#282727" d="M827.749,559.418c2.229,4.139,4.952,5.17,8.583,2.939c0.996-0.612,2.206-0.151,3.254,0.279
	c1.68,0.689,3.206,0.286,4.877-0.243c3.823-1.211,7.578-0.656,11.544,0.088c5.116,0.961,10.706,1.401,15.107-2.46
	c2.346-2.058,4.943-1.546,7.413-1.494c2.489,0.052,4.701-0.165,7.047-1.125c4.289-1.755,8.915-1.411,13.207-0.262
	c3.598,0.963,7.051,1.042,10.385-0.005c3.296-1.035,6.674-0.506,9.96-1.275c1.32-0.309,2.911,0.4,4.345,0.774
	c0.892,0.233,1.773,1.11,2.571,1.007c6.115-0.784,11.572,2.183,17.412,2.917c2.34,0.294,4.545,0.181,6.403-1.253
	c2.16-1.667,3.514-2.403,6.042,0.178c1.346,1.374,5.15,0.758,7.736,0.351c1.684-0.265,3.31-0.494,4.94-0.233
	c3.538,0.567,6.667,0.164,8.846-3.776c2.715,4.222,5.801,4.992,9.687,2.571c1-0.623,2.791-0.932,3.76-0.455
	c2.139,1.056,3.687,2.541,6.477,0.842c1.855-1.13,4.427,0.81,6.89,0.356c1.876-0.346,3.755,0.027,4.447-2.385
	c0.124-0.431,0.819-1.085,1.117-1.02c5.405,1.176,10.733-0.768,16.395,0.4c7.084,1.462,14.607,2.754,22.029,1.168
	c1.117-0.239,2.102-0.577,3.236-0.122c3.718,1.493,7.662,1.49,11.578,1.673c1.304,0.061,3.01-0.281,3.838,0.403
	c3.779,3.117,6.95,0.942,10.25-0.74c4.683-2.386,9.631-1.787,13.897,0.312c2.748,1.352,4.16,0.844,5.659-0.933
	c1.424-1.688,2.206-1.879,4.445-0.702c3.634,1.909,7.861,2.689,11.841,3.933c0.513,0.16,1.067,0.402,1.57,0.343
	c4.88-0.578,6.992,0.247,10.386,1.763c4.434,1.98,7.697,5.463,11.693,7.964c2.194,1.373,4.042,3.462,6.975,1.469
	c0.673-0.457,4.719,3.248,4.747,4.573c0.065,3.119-0.474,6.291,1.597,9.057c0.149,0.199,0.008,0.941-0.117,0.973
	c-3.978,1.03-2.079,4.689-3.186,6.979c-2.085,4.313-5.282,7.686-9.398,10.139c-1.743,1.039-3.81,1.499-5.11,3.303
	c-0.74,1.027-1.79,1.096-2.928,0.268c-2.136-1.555-4.598-0.829-6.369,0.237c-4.398,2.647-8.12,0.899-11.789-1.214
	c-1.072-0.617-1.885-1.023-3.03-0.658c-1.834,0.585-3.818,0.833-5.521,0.093c-5.355-2.327-10.346-0.319-15.427,0.919
	c-0.542,0.132-1.114,0.51-1.608,0.421c-8.046-1.457-16.092,1.285-24.13-0.029c-0.535-0.088-1.382-0.406-1.566-0.185
	c-2.927,3.506-7.238,0.852-10.588,2.439c-1.29,0.611-2.522-0.092-3.732-0.652c-3.68-1.704-8.178-0.991-11.491-3.91
	c-0.424-0.374-1.587-0.376-2.136-0.068c-4.958,2.789-10.931,1.787-15.934,4.339c-0.331,0.169-0.689,0.285-1.028,0.439
	c-1.87,0.854-1.202-3.453-3.001-1.683c-1.115,1.097-2.189,2.635-3.538,2.146c-4.224-1.533-8.655,0.49-12.637-0.827
	c-2.75-0.909-4.969-0.135-7.489-0.021c-4.44,0.201-8.871,0.206-13.222,1.194c-10.162,2.307-20.327-1.084-30.488,0.051
	c-0.521,0.058-1.088-0.197-1.621-0.349c-3.29-0.94-6.507-2.877-10.013-0.695c-3.345-2.361-6.909-0.619-10.359-0.463
	c-2.971,0.134-5.938,0.608-8.877,1.104c-2.693,0.455-5.154,0.226-7.53-1.26c-2.164-1.353-4.421-1.181-6.978-0.699
	c-4.906,0.926-9.955,1.986-14.929,0.256c-1.371-0.477-2.555-0.472-3.732,0.237c-4.897,2.951-10.414,2.49-15.748,2.673
	c-2.084,0.072-4.049,1.016-5.833,0.92c-2.661-0.143-3.681,4.351-7.302,1.764c-1.453-1.038-5.026,0.511-7.475,1.348
	c-2.778,0.948-5.547,0.041-8.333,0.533c-2.549,0.45-4.722-2.348-7.874-1.104c-1.553,0.613-3.509,0.982-5.298,1.336
	c-1.696,0.335-3.71,1.759-4.641-1.788c-0.477-1.815-3.93-1.83-5.286-0.113c-1.996,2.527-4.459,2.176-7.021,2.393
	c-4.996,0.424-9.969,1.545-14.975,0.003c-0.667-0.205-1.705-0.287-2.164,0.081c-3.693,2.963-8.209,1.95-12.347,2.622
	c-3.253,0.528-6.46,0.91-9.688,1.85c-6.523,1.898-13.341,2.451-20.132,2.849c-0.55,0.032-1.274-0.302-1.636-0.055
	c-5.335,3.636-11.108,0.639-16.624,1.203c-5.385,0.551-10.71,1.012-16.019-0.452c-1.151-0.317-2.182,0.134-3.2,0.685
	c-0.809,0.438-1.691,0.754-2.562,1.061c-2.365,0.833-5.395-1.408-6.879,0.026c-1.961,1.894-3.876,1.845-6.045,1.989
	c-1.128,0.074-2.442,0.027-3.169,0.888c-2.951,3.493-7.114,2.546-10.728,2.696c-7.359,0.306-14.685,0.068-21.975,1.806
	c-6.082,1.45-12.401,0.505-18.544-0.058c-2.272-0.208-3.81,0.089-5.666,1.084c-2.827,1.515-5.785,2.982-8.367-0.676
	c-0.891-1.262-2.526-1.021-3.602-0.302c-4.559,3.043-9.758,1.903-14.672,2.307c-6.062,0.499-16.382,4.306-21.451,8.665
	c-0.712,0.613-1.246,0.425-1.964,0.413c-4.106-0.07-8.161,0.332-12.232,0.981c-2.717,0.433-5.528,0.469-8.368,0.094
	c-5.457-0.72-10.608,1.559-15.94,2.231c-2.318,0.292-2.417,3.128-3.923,4.477c-2.054-3.009-2.041-2.796-5.077-2.603
	c-8.446,0.537-16.579,3.503-25.184,2.971c-2.999-0.185-5.584,1.892-8.269,3.156c-1.176,0.554-2.286,1.678-3.463,1.731
	c-8.285,0.378-15.879,4.943-24.541,3.597c-3.092-0.481-6.703,0.717-9.738,1.97c-3.491,1.443-7.186,1.876-10.687,3.095
	c-2.9,1.01-5.777,2.726-8.682-0.07c-0.318-0.306-1.157-0.352-1.625-0.175c-4.225,1.592-9.101,0.794-13.006,2.816
	c-3.634,1.882-7.663,2.932-11.028,5.396c-2.693,1.972-5.59,2.136-8.427,0.003c-1.274-0.958-2.862-3.844-3.724,0.338
	c-2.192,0.17-4.446,0.752-6.563,0.429c-5.193-0.792-9.113,2.786-13.807,3.6c-0.674,0.117-1.308,0.844-1.287,1.667
	c0.022,0.859,0.769,1.233,1.464,1.513c0.69,0.278,1.414,0.477,2.132,0.677c3.09,0.862,6.83-0.507,9.334,2.058
	c2.48,2.541,6.379,1.839,8.718,4.404c0.539,0.591,1.37,0.429,2.082,0.593c2.56,0.589,5.132,0.779,7.559,2.383
	c1.125,0.743,4.057,2.384,5.922-0.268c0.185-0.263,1.163-0.283,1.543-0.046c2.799,1.741,5.952,1.873,9.055,2.512
	c2.28,0.47,4.23,2.215,6.625,0.406c0.175-0.132,0.639,0.119,0.969,0.192c-0.364,1.383-0.474,2.521,1.513,2.705
	c1.376,0.128,2.631-0.795,3.829-0.561c4.701,0.916,9.51,1.692,13.427,4.79c2.101,1.662,4.48,2.665,6.984,3.477
	c1.065,0.345,2.335,0.521,3.113,1.219c4.681,4.197,10.363,5.988,16.381,6.238c4.325,0.179,7.022,4.181,11.351,3.961
	c1.055-0.054,0.937,1.473,1.615,2.093c1.673,1.533,3.267,3.269,6.563,0.757c-1.674,4.721,1.072,8.04,0.25,11.939
	c-0.295,1.398,0.449,3.264-0.403,5.058c-0.513,1.082-0.742,2.995-0.13,3.801c3.843,5.063,1.231,10.114,0.373,15.192
	c-0.182,1.076-0.139,2.191-0.208,3.448c-2.242,0.862-4.652-2.337-6.695,0.565c-1.276,1.812-3.129,3.118-2.962,5.744
	c0.115,1.806-1.24,2.074-2.728,1.65c-1.088-0.31-2.135-0.375-3.294-0.241c-2.601,0.301-5.405,3.959-7.813-0.323
	c-3.931,1.308-7.669-0.416-10.739-2c-5.283-2.727-11.238-1.518-16.496-4.023c-2.892-1.378-6.127,1.239-9.355,0.796
	c-1.719-0.236-4.067,1.541-4.761-1.74c-0.083-0.391-1.34-0.834-1.991-0.754c-2.856,0.351-4.867-1.965-7.224-2.354
	c-6.496-1.074-12.233-5.367-19.454-3.811c-3.113,0.671-6.761-0.586-10.111-1.836c-5.038-1.878-10.002-3.794-14.6-6.609
	c-0.896-0.549-1.491-0.925-2.47,0.64c-1.01,1.615-3.471,0.17-4.231-0.928c-3.411-4.927-8.953-3.823-13.576-5.036
	c-3.964-1.04-8.31-0.325-12.205-2.198c-0.583-0.28-1.443-0.036-2.167,0.037c-3.75,0.379-7.214,1.282-11.155-0.872
	c-2.564-1.401-6.597-0.434-9.801,0.698c-3.227,1.139-6.132,0.964-9.068-0.92c-2.929-1.88-6.284-2.205-9.722-2.066
	c-3.733,0.151-6.937-0.731-8.791-4.508c-0.88-1.792-2.256-3.257-4.247-0.886c-0.589,0.702-1.326,0.315-2.036,0.077
	c-4.277-1.431-8.467-0.564-12.556,0.728c-4.768,1.506-9.417,2.407-13.952-0.612c-0.461-0.307-1.02-0.751-1.495-0.707
	c-5.921,0.544-11.563-1.659-17.478-1.595c-7.309,0.08-14.7,0.507-21.915-1.142c-2.885-0.659-5.6-0.479-8.08,0.889
	c-1.959,1.08-4.45,1.348-5.842,0.705c-3.867-1.786-7.172-0.618-10.79,0.368c-3.61,0.984-7.39-0.124-11.14,0.336
	c-2.885,0.353-5.443,0.827-7.758,2.652c-2.171,1.712-4.489,2.349-7.287,1.016c-2.611-1.243-5.124-0.361-7.255,1.5
	c-0.845,0.737-1.666,1.507-2.441,2.317c-5.489,5.733-13.108,6.532-20.138,8.676c-0.868,0.265-1.989,0.481-2.76,0.16
	c-8.57-3.567-17.982-0.711-26.628-3.567c-1.514-0.5-3.119-0.29-4.366,0.449c-7.568,4.483-15.897,5.737-24.429,5.432
	c-3.612-0.129-7.036,1.319-10.782,0.333c-3.005-0.79-6.228-0.583-9.065-2.35c-2.759-1.719-6.707,0.263-9.001-1.941
	c-2.057-1.977-2.985-5.108-4.505-7.674c-0.572-0.966-1.453-1.7-2.664-1.882c-1.355-0.203-2.144-1.307-1.896-2.365
	c1.002-4.268-2.221-7.329-2.962-11.105c-0.709-3.613-0.259-7.368-2.106-10.91c-1.413-2.71-0.761-5.436,2.088-7.874
	c4.451-3.808,8.346-8.281,12.338-12.6c1.284-1.389,2.444-2.536,4.35-3.23c3.113-1.134,4.952-3.78,5.979-6.929
	c3.439,0.278,5.783-2.031,6.828-4.494c1.729-4.076,5.847-6.708,6.417-11.363c0.233-1.903,1.766-2.303,3.323-2.335
	c1.715-0.036,3.667,0.122,4.669-1.37c4.498-6.699,12.553-7.418,18.67-11.364c0.933-0.602,2.415-0.884,2.805-1.71
	c1.96-4.147,6.085-4.59,9.635-6.034c1.552-0.631,3.661-0.76,4.6-1.883c5.061-6.05,12.948-8.948,17.335-15.633
	c1.877-2.859,5.18-4.279,6.815-7.313c0.35-0.65,1.044-1.342,1.787-1.127c3.885,1.125,5.655-1.921,8.099-3.823
	c3.537-2.753,7.258-5.271,10.9-7.889c1.563-1.124,3.345-1.467,5.22-1.812c3.533-0.649,6.783-2.049,8.979-5.129
	c1.384-1.941,3.012-3.25,5.61-2.933c0.678,0.083,1.733-0.148,2.086-0.626c2.67-3.616,7.435-3.897,10.602-6.865
	c1.784-1.672,4.594-2.911,7.024-3.068c3.202-0.206,5.766-1.455,8.323-2.936c5.142-2.978,10.706-5.241,15.334-9.11
	c1.292-1.081,2.854-1.941,3.653-3.423c1.476-2.742,3.002-5.074,6.704-4.735c1.142,0.104,2.213-1.049,2.158-2.208
	c-0.116-2.434,0.843-2.12,2.84-2.155c2.528-0.043,6.264,1.044,7.009-3.396c0.081-0.486,1.135-0.951,1.819-1.17
	c4.328-1.379,7.803-4.461,11.859-6.172c6.501-2.742,12.047-6.793,16.735-11.71c4.22-4.427,9.621-4.394,14.673-5.619
	c2.005-0.486,3.9-0.453,5.408-2.146c2.132-2.394,5.182-2.793,8.118-3.4c2.979-0.616,5.794-1.329,6.856-4.867
	c0.887-2.953,3.797-3.513,6.295-4.016c2.39-0.481,4.579-0.569,6.314-2.858c1.005-1.326,3.148-2.296,4.874-2.467
	c3.767-0.375,6.517-2.426,9.471-4.387c2.469-1.64,5.182-2.58,8.287-3.038c3.988-0.588,7.586-2.804,11.026-5.054
	c2.573-1.683,4.576-4.378,8.057-4.531c1.357-0.059,1.54-1.274,1.951-2.376c1.197-3.206,1.934-3.629,4.479-1.847
	c2.039,1.428,3.449,0.839,5.014-0.354c1.188-0.906,2.301-1.91,3.449-2.869c2.016-1.681,3.973-3.435,6.892-3.308
	c0.689,0.03,1.86-0.203,2.026-0.624c1.809-4.577,6.557-4.412,9.971-6.38c6.008-3.463,12.433-6.047,18.652-9.063
	c2.298-1.114,4.683-2.155,6.303-4.472c1.495-2.138,4.426-1.272,6.544-2.346c1.582-0.802,3.86-0.545,3.879-3.233
	c0.007-1.018,1.016-1.362,1.539-0.85c2.098,2.055,3.506,0.622,5.272-0.569c3.098-2.089,6.844-3.31,10.369-3.29
	c5.928,0.033,8.637-4.104,11.946-7.606c0.402-0.425-0.362-2.006,1.22-1.712c2.42,0.45,4.278-1.491,6.447-1.523
	c5.641-0.083,10.145-3.379,14.948-5.47c2.136-0.929,3.676,0.02,5.489-0.536c10.777-3.305,21.772-3.87,32.898-2.031
	c4.794,0.792,7.859,4.761,12.134,6.522c0.984,0.405,1.643,1.67,2.818,1.714c4.404,0.164,5.774,2.979,6.791,6.754
	c0.962,3.571,2.286,7.227,4.307,10.278c2.061,3.111,1.438,5.696-0.258,8.156c-0.997,1.446-1.697,2.772-1.973,4.47
	c-0.176,1.082-0.454,2.358-1.156,3.109c-4.863,5.208-8.35,11.853-15.354,14.859c-0.846,0.363-1.791,0.819-2.333,1.511
	c-3.153,4.028-8.11,5.382-12.08,8.193c-2.216,1.569-5.046,2.567-7.743,3.101c-7.176,1.421-12.676,6.036-18.839,9.373
	c-1.625,0.88-2.974,2.583-4.945,2.37c-5.349-0.577-9.692,2.352-14.441,3.851c-0.874,0.276-2.058,0.589-2.435,1.259
	c-2.187,3.886-5.788,4.655-9.787,5.428c-3.427,0.662-6.58,2.406-8.851,5.492c-2.175,2.956-4.812,4.32-9.084,3.904
	c-3.523-0.343-7.823,0.01-11.001,2.887c-1.256,1.137-2.841,1.736-4.47,2.258c-4.271,1.367-8.552,2.731-11.899,5.989
	c-0.647,0.629-1.577,1.297-2.414,1.349c-7.948,0.495-13.253,7.078-20.763,8.877c-3.297,0.789-6.755,3.188-8.713,6.673
	c-0.982,1.748-2.193,2.436-4.535,2.214c-2.259-0.214-4.875,0.597-6.95,1.688c-7.163,3.766-15.327,5.49-21.564,11.264
	c-2.17,2.009-5.729,2.63-8.75,3.581c-4.729,1.489-8.514,4.178-12.266,7.425c-3.441,2.978-7.761,4.955-10.882,8.475
	c-0.416,0.469-1.355,0.713-2.031,0.676c-4.738-0.259-8,2.415-11.128,5.414c-0.669,0.642-1.329,1.715-2.074,1.789
	c-5.472,0.546-9.023,4.721-13.596,6.925c-0.768,0.37-0.829,0.858-1.164,1.499c-1.25,2.393-3.054,3.948-6.168,3.902
	c-5.057-0.074-9.859,0.504-13.868,4.541c-2.284,2.299-5.737,3.427-8.639,5.126c-2.929,1.714-5.664,3.632-6.843,7.061
	c-0.635,1.846-1.254,2.274-2.996,0.645c-1.034-0.967-2.336,0.607-3.102,1.637c-1.628,2.189-3.208,4.205-6.413,2.595
	c-0.56-0.281-1.494-0.04-2.177,0.191c-1.662,0.564-3.49,3.36-2.818,4.366c0.975,1.46,2.663,1.362,4.086,1.082
	c1.625-0.32,3.469-0.718,4.678-1.729c2.875-2.404,5.895-2.505,9.175-1.437c1.55,0.505,3.134,0.583,4.148-0.714
	c2.613-3.344,6.749-2.719,9.977-3.172c4.378-0.615,9.026-0.869,13.63-0.265c3.107,0.407,6.423-0.344,8.631-3.115
	c1.239-1.555,2.801-1.438,4.53-1.496c8.437-0.286,16.614-1.609,23.909-6.334c1.38-0.894,3.033-1.386,4.598-1.962
	c0.463-0.17,1.46-0.138,1.526,0.048c1.636,4.558,4.095,1.117,5.923,0.438c3.22-1.196,6.458-1.836,9.841-1.617
	c1.764,0.114,1.738-0.316,1.265-1.834c-0.293-0.94,4.371-4.151,5.959-4.032c5.716,0.427,11.262-0.419,16.749-1.886
	c1.122-0.3,2.181-0.101,3.303,0.121c4.251,0.841,8.331,0.763,12.473-1.145c2.635-1.214,5.772-1.355,8.693-1.928
	c3.125-0.613,6.291-1.134,8.653-3.545c1.042-1.064,2.161-1.08,3.564-0.957c3.084,0.271,5.803-0.443,8.007-3.029
	c1.297-1.521,3.206-2.525,5.532-1.788c2.8,0.886,5.164,2.027,8.28-0.731c1.904-1.685,6.085-0.866,9.251-1.034
	c2.226-0.118,4.455,0.188,6.442-1.313c1.807-1.365,1.468,0.672,1.94,1.397c1.861-1.548,4.826-0.17,6.395-2.269
	c2.052-2.743,4.249-3.293,7.135-1.24c1.062,0.756,2.379-0.014,3.528-0.084c4.699-0.288,8.384-3.34,12.829-4.085
	c0.862-0.145,2.17-1.041,2.559-0.042c2.638,6.77,7.263,1.075,10.821,1.846c1.577-2.636,4.527-1.886,6.823-2.744
	c0.99-0.37,2.213,0.086,2.989-1.107c1.237-1.902,1.876-1.222,2.406,0.584c0.37,1.261,1.445,1.438,1.68,0.037
	c0.264-1.568,0.058-1.835,2.129-1.469c3.883,0.685,7.971,0.29,11.969,0.181c0.876-0.024,1.918-0.836,2.671-0.231
	c2.704,2.173,5.136,1.432,7.615-0.346c1.032-0.74,2.047-0.431,3.154,0.089c1.451,0.68,3.095,1.929,3.557-1.264
	c0.234-1.615,2.22-0.888,3.405-0.847c5.574,0.194,11.112,0.161,16.245-2.414c2.044-1.026,4.727,2.341,6.329-1.028
	c4.97,1.959,9.84-3.287,14.937-0.112c1.709,1.064,1.872-2.027,3.441-2.09c-0.265-3.261,2.053-2.782,3.6-2.023
	c4.963,2.433,9.36,0.644,13.868-1.226c1.229-0.51,2.381-1.055,3.384-1.917c1.776-1.527,2.998-3.572,5.908-0.745
	c1.417,1.376,4.763-0.935,7.358-0.557c0.496,0.072,1.066-0.301,1.59-0.499c4.781-1.81,9.685-2.208,14.639-0.984
	c1.354,0.335,2.597,0.216,3.858-0.003c5.078-0.878,10.141-1.602,15.28-0.404c0.879,0.205,1.961,0.313,2.753-0.012
	c3.609-1.482,7.148,0.031,10.697-0.03c4.403-0.077,8.815,0.369,13.107,0.754c4.381,0.392,8.561,0.171,12.709-0.631
	c3.818-0.738,7.503-1.985,11.465-1.097c0.691,0.155,1.67,0.204,2.162-0.168c1.168-0.881,2.156-2.015,3.159-3.1
	c1.396-1.508,1.932,2.231,3.71,0.399c4.173-4.301,9.912-3.692,15.213-3.996c3.693-0.212,7.387-0.803,11.151-0.143
	c3.495,0.613,6.843-1.121,10.289-1.572c4.44-0.582,8.906,0.011,13.327-0.936c2.199-0.471,4.885-0.149,6.76,1.908
	c0.483,0.529,1.298,1.254,1.832,1.16c4.381-0.772,8.525,2.133,13.141,0.26c3.915-1.588,8.292-2.152,12.676-1.72
	c5.227,0.515,10.451,0.484,15.616-0.703c0.701-0.161,1.734-0.452,2.132-0.115C823.628,565.078,825.264,562.209,827.749,559.418z"/>
</svg>
